# xmcd
#
# Track frame offsets: 
#        182
#        32057
#        57660
#        76392
#        96745
#        119420
#        147997
#        177877
#        201045
#        221692
#        245332
#        270892
#
# Disc length: 3833 seconds
#
# Revision: 12
# Processed by: cddbd v1.5.2PL0 Copyright (c) Steve Scherf et al.
# Submitted via: ExactAudioCopyFreeDBPlugin 1.0
#
DISCID=b10ef70c
DTITLE=William Orbit - Strange Cargo III
DYEAR=1993
DGENRE=Ambient
TTITLE0=Water From A Vine Leaf
TTITLE1=Into The Paradise
TTITLE2=Time To Get Wize
TTITLE3=Harry Flowers
TTITLE4=A Touch Of The Night
TTITLE5=The Story Of Light
TTITLE6=Gringatcho Demento
TTITLE7=A Hazy Shade Of Random
TTITLE8=Best Friend, Paranoia
TTITLE9=The Monkey King
TTITLE10=Deus Ex Machina
TTITLE11=Water Babies
EXTD=
EXTT0=
EXTT1=
EXTT2=
EXTT3=
EXTT4=
EXTT5=
EXTT6=
EXTT7=
EXTT8=
EXTT9=
EXTT10=
EXTT11=
PLAYORDER=
